# xmcd
# Track frame offsets:
# 182
# 18762
# 33387
# 48770
# 62890
# 80480
# 93472
# 109180
# 118890
# 133247
# 148370
# 167785
# 183782
# 199625
#
# Disc length: 2875 seconds
# Revision: 0
# Processed by: cddbd v1.4PL0 Copyright (c) Steve Scherf et al.
# Submitted via: VisiTrax 2.9.5.181 - For more info visit www.synapsa.com
#
DISCID=c40b390e
DTITLE=Various Artist - Country Boys
DYEAR=1900
DGENRE=
TTITLE0=Johnny Cash - One piece at a time Johnny Cash
TTITLE1=Jerry Lee Lewis - Me and Bobby McGee
TTITLE2=Willie Nelson - Living in the promised land
TTITLE3=Moe Randy - I cheated me right out of you
TTITLE4=Ricky Skaggs - Country Boy
TTITLE5=Lucille - Faster horses
TTITLE6=Waylon Jennings - Lucille
TTITLE7=Charlie Pride - Why baby why
TTITLE8=Merle Haggard - Natural high
TTITLE9=George Jones - I always get lucky with you
TTITLE10=Ronnie Milsap - Lost in the fifties tonight
TTITLE11=Earl Thomas Conley - Love dont care
TTITLE12=Mickey Gilley - Lonely nights
TTITLE13=Marty Robbins - My woman my woman my wife
EXTD=
EXTT0=
EXTT1=
EXTT2=
EXTT3=
EXTT4=
EXTT5=
EXTT6=
EXTT7=
EXTT8=
EXTT9=
EXTT10=
EXTT11=
EXTT12=
EXTT13=
PLAYORDER=
